# xmcd
#
# Track frame offsets:
#	150
#	25735
#	32607
#	46252
#	55006
#	69874
#	86619
#	100982
#	114642
#	125469
#	141138
#	158134
#	174929
#	196851
#	212538
#	247020
#	272667
#	282982
#	296831
#	314449
#	328839
#
# Disc length: 4624 seconds
#
# Revision: 2
# Processed by: cddbd v1.5.2PL0 Copyright (c) Steve Scherf et al.
# Submitted via: audiograbber 1.83.01
#
DISCID=2e120e15
DTITLE=Belardinelli, Scotto - Zaira 1
DYEAR=1976
DGENRE=Oper
TTITLE0=Gemma, splendor di Solima
TTITLE1=Odi tu? Già suona intorno
TTITLE2=Per chi mai, per chi pugnasti
TTITLE3=Si, d'un furor colpevole
TTITLE4=Dalla mia gioia a parte
TTITLE5=Amo ed amata io sono
TTITLE6=Non è, non è tormento
TTITLE7=Zaira, i bei concenti
TTITLE8=Generoso Sultano, i giuri miei
TTITLE9=Prezzo non v'ha che basti
TTITLE10=Ritorna al tuo sembiante
TTITLE11=Vieni: l'albergo è questo
TTITLE12=Chi ci toglie ai ceppi nostri?
TTITLE13=Fermatevi
TTITLE14=Oh dolci aspetti! oh quante
TTITLE15=Qui, crudele, in questa terra
TTITLE16=A che stai? perdono implora
TTITLE17=Non si pianga, si nasconda
TTITLE18=Liberi tornin tutti: era il sospetto
TTITLE19=Qui rimaner tu puoi
TTITLE20=Oh! qual vibrasti orribile
EXTD=
EXTT0=
EXTT1=
EXTT2=
EXTT3=
EXTT4=
EXTT5=
EXTT6=
EXTT7=
EXTT8=
EXTT9=
EXTT10=
EXTT11=
EXTT12=
EXTT13=
EXTT14=
EXTT15=
EXTT16=
EXTT17=
EXTT18=
EXTT19=
EXTT20=
PLAYORDER=
